<svg width="50" height="51" viewBox="0 0 50 51" fill="none" xmlns="http://www.w3.org/2000/svg">
<path d="M22.2812 18.9924V21.8612H20.1812V25.3674H22.2812V35.7904H26.5979V25.3674H29.4937C29.4937 25.3674 29.7667 23.6862 29.8979 21.8466H26.6146V19.4508C26.6146 19.0904 27.0854 18.6091 27.5521 18.6091H29.9021V14.957H26.7042C22.175 14.957 22.2812 18.4674 22.2812 18.9924Z" fill="#21272A"/>
<path d="M12.5 8.70719C11.3949 8.70719 10.3351 9.14618 9.55371 9.92758C8.77231 10.709 8.33332 11.7688 8.33332 12.8739V37.8739C8.33332 38.9789 8.77231 40.0387 9.55371 40.8201C10.3351 41.6015 11.3949 42.0405 12.5 42.0405H37.5C38.6051 42.0405 39.6649 41.6015 40.4463 40.8201C41.2277 40.0387 41.6667 38.9789 41.6667 37.8739V12.8739C41.6667 11.7688 41.2277 10.709 40.4463 9.92758C39.6649 9.14618 38.6051 8.70719 37.5 8.70719H12.5ZM12.5 4.54053H37.5C39.7101 4.54053 41.8297 5.4185 43.3925 6.9813C44.9553 8.54411 45.8333 10.6637 45.8333 12.8739V37.8739C45.8333 40.084 44.9553 42.2036 43.3925 43.7664C41.8297 45.3292 39.7101 46.2072 37.5 46.2072H12.5C10.2899 46.2072 8.17024 45.3292 6.60743 43.7664C5.04463 42.2036 4.16666 40.084 4.16666 37.8739V12.8739C4.16666 10.6637 5.04463 8.54411 6.60743 6.9813C8.17024 5.4185 10.2899 4.54053 12.5 4.54053V4.54053Z" fill="#21272A"/>
</svg>
