<svg width="50" height="51" viewBox="0 0 50 51" fill="none" xmlns="http://www.w3.org/2000/svg">
<path d="M33.3687 4.54053H16.5562C13.2711 4.54439 10.1217 5.85124 7.79901 8.17435C5.47629 10.4975 4.16996 13.6471 4.16666 16.9322L4.16666 33.7447C4.17052 37.0298 5.47737 40.1792 7.80048 42.5019C10.1236 44.8246 13.2732 46.131 16.5583 46.1343H33.3708C36.6559 46.1304 39.8053 44.8236 42.1281 42.5005C44.4508 40.1773 45.7571 37.0277 45.7604 33.7426V16.9301C45.7565 13.645 44.4497 10.4956 42.1266 8.17288C39.8035 5.85016 36.6538 4.54384 33.3687 4.54053V4.54053ZM41.5771 33.7426C41.5771 34.8205 41.3648 35.8879 40.9523 36.8838C40.5397 37.8797 39.9351 38.7846 39.1729 39.5468C38.4107 40.309 37.5058 40.9136 36.5099 41.3261C35.5141 41.7386 34.4467 41.9509 33.3687 41.9509H16.5562C14.3796 41.9504 12.2923 41.0853 10.7534 39.546C9.21451 38.0067 8.34999 35.9192 8.34999 33.7426V16.9301C8.35054 14.7535 9.21559 12.6662 10.7549 11.1273C12.2942 9.58838 14.3817 8.72386 16.5583 8.72386H33.3708C35.5474 8.72441 37.6347 9.58946 39.1736 11.1288C40.7126 12.6681 41.5771 14.7556 41.5771 16.9322V33.7447V33.7426Z" fill="#21272A"/>
<path d="M24.9625 14.5801C22.1113 14.5845 19.3782 15.7192 17.3623 17.7355C15.3464 19.7518 14.2122 22.4851 14.2083 25.3363C14.2117 28.1882 15.3459 30.9224 17.3623 32.9392C19.3787 34.956 22.1127 36.0908 24.9646 36.0947C27.8169 36.0914 30.5514 34.9568 32.5682 32.94C34.5851 30.9231 35.7196 28.1886 35.7229 25.3363C35.7185 22.4844 34.5832 19.7507 32.566 17.7346C30.5488 15.7186 27.8144 14.5849 24.9625 14.5822V14.5801ZM24.9625 31.9113C23.2193 31.9113 21.5474 31.2188 20.3148 29.9862C19.0821 28.7535 18.3896 27.0817 18.3896 25.3384C18.3896 23.5952 19.0821 21.9233 20.3148 20.6907C21.5474 19.458 23.2193 18.7655 24.9625 18.7655C26.7058 18.7655 28.3776 19.458 29.6103 20.6907C30.8429 21.9233 31.5354 23.5952 31.5354 25.3384C31.5354 27.0817 30.8429 28.7535 29.6103 29.9862C28.3776 31.2188 26.7058 31.9113 24.9625 31.9113Z" fill="#21272A"/>
<path d="M35.7417 17.2384C37.1649 17.2384 38.3187 16.0846 38.3187 14.6613C38.3187 13.238 37.1649 12.0842 35.7417 12.0842C34.3184 12.0842 33.1646 13.238 33.1646 14.6613C33.1646 16.0846 34.3184 17.2384 35.7417 17.2384Z" fill="#21272A"/>
</svg>
