<svg width="30" height="30" viewBox="0 0 30 30" fill="none" xmlns="http://www.w3.org/2000/svg">
<path d="M3.75 3.75H6.25L6.75 6.25M8.75 16.25H21.25L26.25 6.25H6.75M8.75 16.25L6.75 6.25M8.75 16.25L5.88388 19.1161C5.09643 19.9036 5.65414 21.25 6.76777 21.25H21.25M21.25 21.25C19.8693 21.25 18.75 22.3693 18.75 23.75C18.75 25.1307 19.8693 26.25 21.25 26.25C22.6307 26.25 23.75 25.1307 23.75 23.75C23.75 22.3693 22.6307 21.25 21.25 21.25ZM11.25 23.75C11.25 25.1307 10.1307 26.25 8.75 26.25C7.36929 26.25 6.25 25.1307 6.25 23.75C6.25 22.3693 7.36929 21.25 8.75 21.25C10.1307 21.25 11.25 22.3693 11.25 23.75Z" stroke="#545F71" stroke-width="2" stroke-linecap="round" stroke-linejoin="round"/>
</svg>
