<svg width="50" height="51" viewBox="0 0 50 51" fill="none" xmlns="http://www.w3.org/2000/svg">
<path d="M35.4166 19.0135C34.65 19.3468 33.8271 19.576 32.9625 19.676C33.8458 19.1551 34.5208 18.3301 34.8416 17.3489C33.9999 17.8394 33.0815 18.1846 32.125 18.3697C31.7226 17.948 31.2386 17.6126 30.7024 17.3841C30.1662 17.1556 29.5891 17.0387 29.0062 17.0405C26.6458 17.0405 24.7333 18.926 24.7333 21.2489C24.7333 21.578 24.7708 21.8989 24.8437 22.2072C23.1507 22.1268 21.4929 21.6944 19.9763 20.9375C18.4597 20.1807 17.1175 19.116 16.0354 17.8114C15.6553 18.4512 15.4552 19.1818 15.4562 19.926C15.4562 21.3843 16.2125 22.676 17.3583 23.428C16.6801 23.4068 16.0164 23.2262 15.4208 22.901V22.953C15.4272 23.9311 15.7725 24.8767 16.3977 25.6288C17.023 26.3809 17.8896 26.8931 18.85 27.078C18.2195 27.2448 17.5598 27.269 16.9187 27.1489C17.1982 27.9903 17.7326 28.7238 18.4479 29.2476C19.1633 29.7714 20.0239 30.0594 20.9104 30.0718C19.3895 31.2438 17.5221 31.877 15.6021 31.8718C15.2583 31.8718 14.9187 31.851 14.5833 31.8135C16.5426 33.0536 18.8145 33.7105 21.1333 33.7072C28.9958 33.7072 33.2937 27.2947 33.2937 21.7322L33.2791 21.1864C34.1173 20.5974 34.8415 19.8611 35.4166 19.0135Z" fill="#21272A"/>
<path d="M12.5 8.70719C11.395 8.70719 10.3351 9.14618 9.55374 9.92758C8.77234 10.709 8.33335 11.7688 8.33335 12.8739V37.8739C8.33335 38.9789 8.77234 40.0387 9.55374 40.8201C10.3351 41.6015 11.395 42.0405 12.5 42.0405H37.5C38.6051 42.0405 39.6649 41.6015 40.4463 40.8201C41.2277 40.0387 41.6667 38.9789 41.6667 37.8739V12.8739C41.6667 11.7688 41.2277 10.709 40.4463 9.92758C39.6649 9.14618 38.6051 8.70719 37.5 8.70719H12.5ZM12.5 4.54053H37.5C39.7102 4.54053 41.8298 5.4185 43.3926 6.9813C44.9554 8.54411 45.8334 10.6637 45.8334 12.8739V37.8739C45.8334 40.084 44.9554 42.2036 43.3926 43.7664C41.8298 45.3292 39.7102 46.2072 37.5 46.2072H12.5C10.2899 46.2072 8.17027 45.3292 6.60746 43.7664C5.04466 42.2036 4.16669 40.084 4.16669 37.8739V12.8739C4.16669 10.6637 5.04466 8.54411 6.60746 6.9813C8.17027 5.4185 10.2899 4.54053 12.5 4.54053V4.54053Z" fill="#21272A"/>
</svg>
