<svg width="50" height="51" viewBox="0 0 50 51" fill="none" xmlns="http://www.w3.org/2000/svg">
<path d="M31.0896 18.1362H18.9104C16.5208 18.1362 14.5833 20.0529 14.5833 22.4154V28.4362C14.5833 30.8008 16.5208 32.7154 18.9104 32.7154H31.0896C33.4791 32.7154 35.4166 30.7987 35.4166 28.4362V22.4154C35.4166 20.0508 33.4791 18.1362 31.0896 18.1362ZM28.1646 25.7196L22.4666 28.4071C22.4318 28.4235 22.3933 28.4309 22.3549 28.4286C22.3164 28.4263 22.2791 28.4143 22.2465 28.3937C22.2139 28.3732 22.187 28.3447 22.1683 28.311C22.1496 28.2773 22.1397 28.2394 22.1396 28.2008V22.6591C22.1399 22.6201 22.1502 22.5818 22.1695 22.5478C22.1889 22.5139 22.2165 22.4855 22.2499 22.4652C22.2833 22.445 22.3213 22.4336 22.3603 22.4322C22.3994 22.4307 22.4381 22.4393 22.4729 22.4571L28.1687 25.3112C28.2062 25.3308 28.2375 25.3604 28.2592 25.3966C28.2809 25.4329 28.2922 25.4744 28.2917 25.5167C28.2913 25.5589 28.2792 25.6002 28.2568 25.6361C28.2343 25.6719 28.2024 25.7008 28.1646 25.7196Z" fill="#21272A"/>
<path d="M12.5 8.70719C11.395 8.70719 10.3351 9.14618 9.55374 9.92758C8.77234 10.709 8.33335 11.7688 8.33335 12.8739V37.8739C8.33335 38.9789 8.77234 40.0387 9.55374 40.8201C10.3351 41.6015 11.395 42.0405 12.5 42.0405H37.5C38.6051 42.0405 39.6649 41.6015 40.4463 40.8201C41.2277 40.0387 41.6667 38.9789 41.6667 37.8739V12.8739C41.6667 11.7688 41.2277 10.709 40.4463 9.92758C39.6649 9.14618 38.6051 8.70719 37.5 8.70719H12.5ZM12.5 4.54053H37.5C39.7102 4.54053 41.8298 5.4185 43.3926 6.9813C44.9554 8.54411 45.8334 10.6637 45.8334 12.8739V37.8739C45.8334 40.084 44.9554 42.2036 43.3926 43.7664C41.8298 45.3292 39.7102 46.2072 37.5 46.2072H12.5C10.2899 46.2072 8.17027 45.3292 6.60746 43.7664C5.04466 42.2036 4.16669 40.084 4.16669 37.8739V12.8739C4.16669 10.6637 5.04466 8.54411 6.60746 6.9813C8.17027 5.4185 10.2899 4.54053 12.5 4.54053V4.54053Z" fill="#21272A"/>
</svg>
